# xmcd CD Database Entry
#
# Track frame offsets:
# 150
# 40437
# 58540
# 87800
# 101027
# 107925
# 132542
# 156197
# 176672
# 217832
#
# Disc length: 3608 seconds
#
# Revision: 1
# Processed by: cddbd v1.4PL0 Copyright (c) Steve Scherf et al.
# Submitted via: tcd 2.0b
#
DISCID=8a0e160a
DTITLE=Ritchie Blackmore - Blackmore Request
DYEAR=1900
DGENRE=
TTITLE0=Warming Up
TTITLE1=Cosmic Jazz
TTITLE2=Smoke On The Water
TTITLE3=Never Before
TTITLE4=I Surrender
TTITLE5=Make Your Move
TTITLE6=All Night Long
TTITLE7=Self Portrait
TTITLE8=Mandrake Root
TTITLE9=Rock N Roll Medley
EXTD=
EXTT0=
EXTT1=
EXTT2=
EXTT3=
EXTT4=
EXTT5=
EXTT6=
EXTT7=
EXTT8=
EXTT9=
PLAYORDER=
